<svg xmlns="http://www.w3.org/2000/svg" viewBox="0 0 130 35.2"><linearGradient id="a" gradientUnits="userSpaceOnUse" x1="56.898" y1="50.716" x2="56.898" y2="8.693" gradientTransform="matrix(1 0 0 -1 0 49.465)"><stop offset="0" stop-color="#fcdf6b"/><stop offset=".224" stop-color="#efbd50"/><stop offset=".423" stop-color="#cd9638"/><stop offset=".559" stop-color="#ac772a"/><stop offset=".756" stop-color="#8e5c1e"/><stop offset=".892" stop-color="#83551a"/><stop offset="1" stop-color="#996520"/></linearGradient><path d="M102.9-.1v17.5h-5.8V-.1H46.9L36.7 16.3V-.1H25.8l-7.4 9.8-7.5-9.8H0v34.7h10.9V16.1l7.5 9.7 7.4-9.6v18.4H37l4.5-7.3H53v7.3h11V9.8h5.8v24.8h10.9V9.8h5.5v17.6h16.7v7.3h10.9V-.1h-10.9zM53 8.6v8.8h-5.4L53 8.6z" fill-rule="evenodd" clip-rule="evenodd" fill="url(#a)"/><linearGradient id="b" gradientUnits="userSpaceOnUse" x1="103.897" y1="-233.874" x2="124.405" y2="51.936" gradientTransform="matrix(1 0 0 -1 0 49.465)"><stop offset="0"/><stop offset="1" stop-color="#f0f0f0"/></linearGradient><path d="M118.3-.1v21.2l10.9-6.6V-.1h-10.9z" fill-rule="evenodd" clip-rule="evenodd" fill="url(#b)"/><linearGradient id="c" gradientUnits="userSpaceOnUse" x1="126.419" y1="13.841" x2="111.432" y2="50.694" gradientTransform="matrix(1 0 0 -1 0 49.465)"><stop offset="0" stop-color="#f1f1f1"/><stop offset="1" stop-color="#bdbdbd"/></linearGradient><path d="M130 28.2c-.3-3-2.7-5.4-5.7-5.7-4-.4-7.4 2.9-7 7 .3 3 2.7 5.4 5.7 5.7 4 .3 7.4-3 7-7" fill-rule="evenodd" clip-rule="evenodd" fill="url(#c)"/></svg>